PathFileType	4	(X/Y/Z)	Patient4_TMGait_0pt5_01_left_38.trc.trc
DataRate	CameraRate	NumFrames	NumMarkers	Units	OrigDataRate	OrigDataStartFrame	OrigNumFrames
73.684210526316	73.684210526316	5	33	mm	73.684210526316	1	       141
Frame#	Time	L.ASIS			Sacral			L.Shoulder			Chest			R.Shoulder			Neck			R.ASIS			R.Thigh.Superior			R.Thigh.Lateral			R.Thigh.Inferior			R.Patella			L.Thigh.Superior			L.Thigh.Lateral			L.Thigh.Inferior			L.Patella			L.Shank.Superior			L.Shank.Lateral			L.Shank.Inferior			R.Shank.Superior			R.Shank.Lateral			R.Shank.Inferior			R.Heel			R.Midfoot.Superior			R.Midfoot.Lateral			R.Toe			L.Heel			L.Midfoot.Lateral			L.Midfoot.Superior			L.Toe			L.Elbow			L.Wrist			R.Elbow			R.Wrist			
		X1	Y1	Z1	X2	Y2	Z2	X3	Y3	Z3	X4	Y4	Z4	X5	Y5	Z5	X6	Y6	Z6	X7	Y7	Z7	X8	Y8	Z8	X9	Y9	Z9	X10	Y10	Z10	X11	Y11	Z11	X12	Y12	Z12	X13	Y13	Z13	X14	Y14	Z14	X15	Y15	Z15	X16	Y16	Z16	X17	Y17	Z17	X18	Y18	Z18	X19	Y19	Z19	X20	Y20	Z20	X21	Y21	Z21	X22	Y22	Z22	X23	Y23	Z23	X24	Y24	Z24	X25	Y25	Z25	X26	Y26	Z26	X27	Y27	Z27	X28	Y28	Z28	X29	Y29	Z29	X30	Y30	Z30	X31	Y31	Z31	X32	Y32	Z32	X33	Y33	Z33	

1	50.590000000000	821.895227175529	961.807191129962	358.144162111472	612.950458148795	1005.299998718462	520.120193411788	775.477230181280	1437.884166913070	341.377297450527	882.843140540162	1365.765438698448	499.154615226709	801.754620018140	1435.406847984242	677.296506542224	779.810068870810	1497.374666197185	494.413510875490	842.885528231161	943.905805485141	631.419770386064	883.452432101259	740.841894859749	606.044639811711	798.966411242218	633.265559666365	661.089894509841	877.714737831683	580.150362016373	582.817186007343	875.731833223292	491.038760164721	586.397654868427	898.236146245875	770.659569662013	384.787089781511	845.296923382172	646.428172987039	308.819307680281	946.738499239345	578.826434029111	366.760595678381	954.496604365695	487.605408925634	360.370225478660	884.703731163862	422.917729957768	355.221655921295	741.040290234754	387.618904997206	306.849534429724	720.181366967890	260.725575618766	364.508318489813	845.585113961824	403.017282300855	591.769615706339	770.784276374738	300.336232561408	649.404594722172	811.658150366721	205.627812523687	586.433942509055	672.723233497904	43.620510944837	549.529171146768	843.853455414603	97.311340847385	592.752870192231	753.312866446005	36.359740746837	627.640104564733	961.915756520560	42.501873151015	624.583813069941	523.831800895493	212.512249071627	401.676127607429	578.351969964141	160.693314882123	322.731565498441	683.940396805993	158.761444266765	344.777172178216	750.899674136527	39.171513169475	319.944940527696	755.499978693742	1080.369566505804	228.027879184968	904.287628669699	863.402355366910	220.453483070072	805.150210658670	1087.705030324553	796.655988693006	998.773312467201	914.920197074835	776.407043824161	
2	50.603571428571	818.873074184244	963.142127726465	358.892374918967	611.190321181410	1006.543868530092	522.709454031239	773.119325203579	1438.445890420546	342.921832035115	882.243209369233	1366.006202554611	499.316183740591	803.754778529560	1436.040957567945	678.353918545376	779.492067154544	1497.887916802186	495.781997001011	841.920476026684	943.923674967692	632.003250973821	879.443824810099	740.197560812798	605.451945044478	794.213520291742	633.464828686834	661.618244441926	871.201713365310	579.519127137815	582.496593076087	868.234061280285	490.918169838549	586.168188472679	897.807409614736	774.890608816915	385.582971190751	847.129633691929	649.715417095647	309.596392298711	949.800652517957	584.048440504371	367.266733194623	959.758723650711	493.548131649433	360.993790213248	892.960890327129	426.881914568694	355.568621683977	751.579593968665	384.953265277489	307.000958896149	737.339238413864	257.176257396057	364.036316801514	838.190565597498	403.012978331687	591.798145699741	763.455445169156	300.391115293725	649.587184774368	804.363159948280	205.721092323644	586.476205122953	665.423127356134	43.561425286527	549.478049427411	836.567939710143	97.286152066467	592.753761544333	746.028783575558	36.334338481287	627.693161091824	954.601715316568	42.678470259343	624.615683755032	544.485833787561	198.406816490277	401.062363396952	601.383688337998	150.598978538305	321.639354821982	706.546835506822	154.290619078944	343.683167050036	779.685691285621	39.326014893762	317.692517806622	746.357168042503	1081.160227865604	231.082157208580	881.502394144953	857.133673335711	223.480597654608	816.094125573443	1089.725720426133	798.707468770591	1018.275773239693	930.480040861066	774.626139460027	
3	50.617142857143	815.883297797578	964.421136042740	359.612022983114	609.472212242970	1007.734141123954	525.254118569409	770.800681390344	1438.970763687739	344.438650497165	881.659469613588	1366.200580766669	499.452574934399	805.755012573891	1436.624116706588	679.379025890412	779.191667571535	1498.359805461251	497.122778367559	840.954514680961	943.916492520147	632.543680436075	875.444123220044	739.538472007209	604.850039963588	789.486927962792	633.654953152007	662.150382862623	864.718008114548	578.885979443491	582.192054427399	860.775581710413	490.789601408474	585.960593085450	897.303647344050	778.954974219904	386.392431443154	848.798396526482	652.863855795719	310.382881556014	952.562898281350	589.027103510268	367.879932856472	964.685235790568	499.328498776672	361.694685027081	900.974029134489	430.729856678640	355.943450805671	762.104096567329	382.023776572694	307.086523177706	754.655979089954	253.465027028676	363.508393510664	830.828268237841	403.006642332185	591.836965295503	756.163139350453	300.436544692673	649.773333934125	797.098652413091	205.805888165466	586.518752626572	658.160555501417	43.498932355197	549.430073532588	829.313191826884	97.259240407885	592.751009303902	738.778437112251	36.307789687109	627.741361632859	947.322959103636	42.851589946145	624.643694533740	565.601220182358	183.940308025994	400.297666184158	624.870470694099	140.283386036655	320.424377240244	729.478088989277	149.721263357381	342.523482313787	808.857098088615	39.610225612762	315.412873055973	737.248382745044	1081.949505305707	234.073455996981	858.805608447333	851.098110734966	226.485990779717	826.960406079140	1091.739064885469	800.692421847553	1037.492564092051	946.141816696177	772.734956781104	
4	50.630714285714	812.973345650300	965.581914379624	360.272839744973	607.839577551696	1008.818364329168	527.695499477482	768.575996492205	1439.423161299456	345.887020664225	881.110510326318	1366.307977341957	499.539090037473	807.735482615849	1437.108831748346	680.331263793909	778.927409406915	1498.751316912632	498.395506093009	839.998684946579	943.861108253049	633.007051928156	871.500185472201	738.854851312827	604.240464966172	784.849147687483	633.820861427320	662.678615127631	858.346318038902	578.249172494714	581.914724692559	853.451628299955	490.639185779457	585.787692227429	896.634128390489	782.655414570957	387.213479785139	850.128684926473	655.725123336716	311.153301044088	954.735503603377	593.513122599158	368.658953953634	968.942652916272	504.766767174543	362.514956939751	908.471770311056	434.355227762705	356.355596033013	772.550856120461	378.673798774818	307.055626703460	772.152501568303	249.570203751986	362.905804730663	823.576239906752	402.984939598386	591.886036865135	748.983138554764	300.463525435541	649.961233028812	789.924624794096	205.869660446550	586.558901197928	650.986203085256	43.432214609686	549.387037422705	822.135164502781	97.229165472972	592.740622063370	731.610658126198	36.279721388930	627.781187499358	940.128787400597	43.014915385904	624.665590535806	587.467733381681	169.045732032934	399.302512834927	649.075217810464	129.752243330397	319.047150400757	752.857127299246	145.113842395350	341.295474109189	838.513360392689	40.258280736179	313.181534731680	728.246249401196	1082.743626702731	236.933480277313	836.397911784342	845.550296637533	229.447249078087	837.638675790403	1093.739761407548	802.517120125852	1056.039927506107	961.942011066916	770.627870349704	
5	50.644285714286	810.184102147630	966.572336021171	360.848618514080	606.322575688648	1009.756652492848	529.985269743247	766.489793117988	1439.775021914332	347.232180335834	880.610555377780	1366.296336133984	499.554891645535	809.677450187265	1437.455934231718	681.175824020023	778.714088705031	1499.031439794077	499.566139141075	839.062822218857	943.737243334095	633.370418182686	867.654713701241	738.137524213554	603.633348608176	780.350227792584	633.947439383360	663.196603061345	852.156596706421	577.605164060617	581.675660067446	846.338746481347	490.452025137230	585.659700326220	895.711855315103	785.817291319126	388.040667601332	850.964607703081	658.172224178645	311.875960559151	956.070316881971	597.295521226951	369.643780997248	972.255955231962	509.716733456894	363.480674902949	915.233226079845	437.684604649557	356.808911254088	782.896400026626	374.801973053614	306.866687892703	789.868533531814	245.526899079759	362.226607002970	816.495836239750	402.932738848921	591.944265415815	741.968599878158	300.464933947095	650.149556415769	782.874945399602	205.900696047122	586.594364924995	643.918913990502	43.361646507150	549.352234658415	815.049191189624	97.194384871537	592.719285740045	724.542722166375	36.250306309631	627.810861535738	933.036684586615	43.162029309560	624.680280545304	610.375896340665	153.743211182136	398.031685936525	674.262301666818	119.083905595358	317.501711387405	776.812628759231	140.587563839602	340.022346206776	868.746652206634	41.546647312874	311.102886647041	719.391469514749	1083.554960975759	239.614994462967	814.404892281761	840.695843185763	232.358940326471	848.068677461201	1095.730351558007	804.095159868215	1073.624666509311	977.951870955592	768.204732883727	
